<?xml version="1.0" encoding="utf-8"?>
<!-- Generator: Adobe Illustrator 24.3.0, SVG Export Plug-In . SVG Version: 6.00 Build 0)  -->
<svg version="1.1" id="Layer_1" xmlns="http://www.w3.org/2000/svg" xmlns:xlink="http://www.w3.org/1999/xlink" x="0px" y="0px"
	 viewBox="0 0 127.85 197.08" style="enable-background:new 0 0 127.85 197.08;" xml:space="preserve">
<style type="text/css">
	.st0{fill:hsl(218, 22%, 67%);}
</style>
<path class="st0" d="M2.06,196.81L2.06,196.81c-1.72-0.73-2.52-2.71-1.8-4.42L67.8,32.49c0.73-1.72,2.71-2.52,4.42-1.8l0,0
	c1.72,0.73,2.52,2.71,1.8,4.42L6.48,195.01C5.76,196.73,3.78,197.53,2.06,196.81z"/>
<path class="st0" d="M39.74,191.14L39.74,191.14c-1.72-0.73-2.52-2.71-1.8-4.42L115.03,4.2c0.73-1.72,2.71-2.52,4.42-1.8v0
	c1.72,0.73,2.52,2.71,1.8,4.42L44.16,189.34C43.44,191.06,41.46,191.86,39.74,191.14z"/>
</svg>
